solid OpenSCAD_Model
  facet normal 1 -0 0
    outer loop
      vertex 116 3 50
      vertex 116 97 42
      vertex 116 97 50
    endloop
  endfacet
  facet normal 1 0 0
    outer loop
      vertex 116 97 42
      vertex 116 3 50
      vertex 116 3 42
    endloop
  endfacet
  facet normal 0.994522 -0.104527 0
    outer loop
      vertex 115.891 1.96044 50
      vertex 116 3 42
      vertex 116 3 50
    endloop
  endfacet
  facet normal 0.994522 -0.104527 0
    outer loop
      vertex 116 3 42
      vertex 115.891 1.96044 50
      vertex 115.891 1.96044 42
    endloop
  endfacet
  facet normal 0.207912 -0.978148 0
    outer loop
      vertex 111.523 -1.97261 42
      vertex 112.545 -1.75528 50
      vertex 111.523 -1.97261 50
    endloop
  endfacet
  facet normal 0.207912 -0.978148 0
    outer loop
      vertex 112.545 -1.75528 50
      vertex 111.523 -1.97261 42
      vertex 112.545 -1.75528 42
    endloop
  endfacet
  facet normal 0 0 1
    outer loop
      vertex 111.523 101.973 50
      vertex 116 97 50
      vertex 115.891 98.0396 50
    endloop
  endfacet
  facet normal 0 0 1
    outer loop
      vertex 116 97 50
      vertex 111.523 101.973 50
      vertex 116 3 50
    endloop
  endfacet
  facet normal 0 0 1
    outer loop
      vertex 111.523 101.973 50
      vertex 115.891 98.0396 50
      vertex 115.568 99.0337 50
    endloop
  endfacet
  facet normal 0 0 1
    outer loop
      vertex 111.523 -1.97261 50
      vertex 116 3 50
      vertex 111.523 101.973 50
    endloop
  endfacet
  facet normal 0 0 1
    outer loop
      vertex 111.523 101.973 50
      vertex 115.568 99.0337 50
      vertex 115.045 99.9389 50
    endloop
  endfacet
  facet normal 0 0 1
    outer loop
      vertex 116 3 50
      vertex 111.523 -1.97261 50
      vertex 115.891 1.96044 50
    endloop
  endfacet
  facet normal 0 0 1
    outer loop
      vertex 111.523 101.973 50
      vertex 115.045 99.9389 50
      vertex 114.346 100.716 50
    endloop
  endfacet
  facet normal 0 0 1
    outer loop
      vertex 115.891 1.96044 50
      vertex 111.523 -1.97261 50
      vertex 115.568 0.966317 50
    endloop
  endfacet
  facet normal 0 0 1
    outer loop
      vertex 111.523 101.973 50
      vertex 114.346 100.716 50
      vertex 113.5 101.33 50
    endloop
  endfacet
  facet normal 0 0 1
    outer loop
      vertex 115.568 0.966317 50
      vertex 111.523 -1.97261 50
      vertex 115.045 0.0610743 50
    endloop
  endfacet
  facet normal 0 0 1
    outer loop
      vertex 111.523 101.973 50
      vertex 113.5 101.33 50
      vertex 112.545 101.755 50
    endloop
  endfacet
  facet normal 0 0 1
    outer loop
      vertex 115.045 0.0610743 50
      vertex 111.523 -1.97261 50
      vertex 114.346 -0.715724 50
    endloop
  endfacet
  facet normal 0 0 1
    outer loop
      vertex 114.346 -0.715724 50
      vertex 111.523 -1.97261 50
      vertex 113.5 -1.33013 50
    endloop
  endfacet
  facet normal 0 0 1
    outer loop
      vertex 113.5 -1.33013 50
      vertex 111.523 -1.97261 50
      vertex 112.545 -1.75528 50
    endloop
  endfacet
  facet normal -0 0 1
    outer loop
      vertex 2.47736 101.973 50
      vertex 111.523 -1.97261 50
      vertex 111.523 101.973 50
    endloop
  endfacet
  facet normal 0 0 1
    outer loop
      vertex 2.47736 101.973 50
      vertex 2.47736 -1.97261 50
      vertex 111.523 -1.97261 50
    endloop
  endfacet
  facet normal 0 0 1
    outer loop
      vertex -2 97 50
      vertex 2.47736 101.973 50
      vertex 1.45492 101.755 50
    endloop
  endfacet
  facet normal 0 0 1
    outer loop
      vertex 2.47736 101.973 50
      vertex -2 97 50
      vertex 2.47736 -1.97261 50
    endloop
  endfacet
  facet normal 0 0 1
    outer loop
      vertex -2 97 50
      vertex 1.45492 101.755 50
      vertex 0.500001 101.33 50
    endloop
  endfacet
  facet normal -0 0 1
    outer loop
      vertex -2 3 50
      vertex 2.47736 -1.97261 50
      vertex -2 97 50
    endloop
  endfacet
  facet normal 0 0 1
    outer loop
      vertex -2 97 50
      vertex 0.500001 101.33 50
      vertex -0.345653 100.716 50
    endloop
  endfacet
  facet normal 0 0 1
    outer loop
      vertex 2.47736 -1.97261 50
      vertex -2 3 50
      vertex 1.45492 -1.75528 50
    endloop
  endfacet
  facet normal 0 0 1
    outer loop
      vertex -2 97 50
      vertex -0.345653 100.716 50
      vertex -1.04508 99.9389 50
    endloop
  endfacet
  facet normal 0 0 1
    outer loop
      vertex 1.45492 -1.75528 50
      vertex -2 3 50
      vertex 0.5 -1.33013 50
    endloop
  endfacet
  facet normal 0 0 1
    outer loop
      vertex -2 97 50
      vertex -1.04508 99.9389 50
      vertex -1.56773 99.0337 50
    endloop
  endfacet
  facet normal 0 0 1
    outer loop
      vertex 0.5 -1.33013 50
      vertex -2 3 50
      vertex -0.345653 -0.715724 50
    endloop
  endfacet
  facet normal 0 0 1
    outer loop
      vertex -2 97 50
      vertex -1.56773 99.0337 50
      vertex -1.89074 98.0396 50
    endloop
  endfacet
  facet normal 0 0 1
    outer loop
      vertex -0.345653 -0.715724 50
      vertex -2 3 50
      vertex -1.04508 0.0610743 50
    endloop
  endfacet
  facet normal 0 0 1
    outer loop
      vertex -1.04508 0.0610743 50
      vertex -2 3 50
      vertex -1.56773 0.966317 50
    endloop
  endfacet
  facet normal 0 0 1
    outer loop
      vertex -1.56773 0.966317 50
      vertex -2 3 50
      vertex -1.89074 1.96044 50
    endloop
  endfacet
  facet normal -0.207911 -0.978148 0
    outer loop
      vertex 1.45492 -1.75528 42
      vertex 2.47736 -1.97261 50
      vertex 1.45492 -1.75528 50
    endloop
  endfacet
  facet normal -0.207911 -0.978148 -0
    outer loop
      vertex 2.47736 -1.97261 50
      vertex 1.45492 -1.75528 42
      vertex 2.47736 -1.97261 42
    endloop
  endfacet
  facet normal -1 0 0
    outer loop
      vertex -2 3 42
      vertex -2 97 50
      vertex -2 97 42
    endloop
  endfacet
  facet normal -1 -0 0
    outer loop
      vertex -2 97 50
      vertex -2 3 42
      vertex -2 3 50
    endloop
  endfacet
  facet normal -0.587785 0.809017 0
    outer loop
      vertex 0.500001 101.33 42
      vertex -0.345653 100.716 50
      vertex 0.500001 101.33 50
    endloop
  endfacet
  facet normal -0.587785 0.809017 0
    outer loop
      vertex -0.345653 100.716 50
      vertex 0.500001 101.33 42
      vertex -0.345653 100.716 42
    endloop
  endfacet
  facet normal 0.994522 0.104527 0
    outer loop
      vertex 116 97 50
      vertex 115.891 98.0396 42
      vertex 115.891 98.0396 50
    endloop
  endfacet
  facet normal 0.994522 0.104527 0
    outer loop
      vertex 115.891 98.0396 42
      vertex 116 97 50
      vertex 116 97 42
    endloop
  endfacet
  facet normal 0.743145 -0.669131 0
    outer loop
      vertex 114.346 -0.715724 50
      vertex 115.045 0.0610743 42
      vertex 115.045 0.0610743 50
    endloop
  endfacet
  facet normal 0.743145 -0.669131 0
    outer loop
      vertex 115.045 0.0610743 42
      vertex 114.346 -0.715724 50
      vertex 114.346 -0.715724 42
    endloop
  endfacet
  facet normal 0 -1 0
    outer loop
      vertex 2.47736 -1.97261 42
      vertex 111.523 -1.97261 50
      vertex 2.47736 -1.97261 50
    endloop
  endfacet
  facet normal 0 -1 -0
    outer loop
      vertex 111.523 -1.97261 50
      vertex 2.47736 -1.97261 42
      vertex 111.523 -1.97261 42
    endloop
  endfacet
  facet normal -0.994522 0.104529 0
    outer loop
      vertex -2 97 42
      vertex -1.89074 98.0396 50
      vertex -1.89074 98.0396 42
    endloop
  endfacet
  facet normal -0.994522 0.104529 0
    outer loop
      vertex -1.89074 98.0396 50
      vertex -2 97 42
      vertex -2 97 50
    endloop
  endfacet
  facet normal -0.866025 0.5 0
    outer loop
      vertex -1.56773 99.0337 42
      vertex -1.04508 99.9389 50
      vertex -1.04508 99.9389 42
    endloop
  endfacet
  facet normal -0.866025 0.5 0
    outer loop
      vertex -1.04508 99.9389 50
      vertex -1.56773 99.0337 42
      vertex -1.56773 99.0337 50
    endloop
  endfacet
  facet normal -0.743145 -0.669131 0
    outer loop
      vertex -0.345653 -0.715724 42
      vertex -1.04508 0.0610743 50
      vertex -1.04508 0.0610743 42
    endloop
  endfacet
  facet normal -0.743145 -0.669131 0
    outer loop
      vertex -1.04508 0.0610743 50
      vertex -0.345653 -0.715724 42
      vertex -0.345653 -0.715724 50
    endloop
  endfacet
  facet normal 0.951056 -0.309019 0
    outer loop
      vertex 115.568 0.966317 50
      vertex 115.891 1.96044 42
      vertex 115.891 1.96044 50
    endloop
  endfacet
  facet normal 0.951056 -0.309019 0
    outer loop
      vertex 115.891 1.96044 42
      vertex 115.568 0.966317 50
      vertex 115.568 0.966317 42
    endloop
  endfacet
  facet normal 0.406736 -0.913546 0
    outer loop
      vertex 112.545 -1.75528 42
      vertex 113.5 -1.33013 50
      vertex 112.545 -1.75528 50
    endloop
  endfacet
  facet normal 0.406736 -0.913546 0
    outer loop
      vertex 113.5 -1.33013 50
      vertex 112.545 -1.75528 42
      vertex 113.5 -1.33013 42
    endloop
  endfacet
  facet normal 0.587787 -0.809016 0
    outer loop
      vertex 113.5 -1.33013 42
      vertex 114.346 -0.715724 50
      vertex 113.5 -1.33013 50
    endloop
  endfacet
  facet normal 0.587787 -0.809016 0
    outer loop
      vertex 114.346 -0.715724 50
      vertex 113.5 -1.33013 42
      vertex 114.346 -0.715724 42
    endloop
  endfacet
  facet normal -0.866025 -0.5 0
    outer loop
      vertex -1.04508 0.0610743 42
      vertex -1.56773 0.966317 50
      vertex -1.56773 0.966317 42
    endloop
  endfacet
  facet normal -0.866025 -0.5 0
    outer loop
      vertex -1.56773 0.966317 50
      vertex -1.04508 0.0610743 42
      vertex -1.04508 0.0610743 50
    endloop
  endfacet
  facet normal -0.587785 -0.809017 0
    outer loop
      vertex -0.345653 -0.715724 42
      vertex 0.5 -1.33013 50
      vertex -0.345653 -0.715724 50
    endloop
  endfacet
  facet normal -0.587785 -0.809017 -0
    outer loop
      vertex 0.5 -1.33013 50
      vertex -0.345653 -0.715724 42
      vertex 0.5 -1.33013 42
    endloop
  endfacet
  facet normal -0.951057 0.309017 0
    outer loop
      vertex -1.89074 98.0396 42
      vertex -1.56773 99.0337 50
      vertex -1.56773 99.0337 42
    endloop
  endfacet
  facet normal -0.951057 0.309017 0
    outer loop
      vertex -1.56773 99.0337 50
      vertex -1.89074 98.0396 42
      vertex -1.89074 98.0396 50
    endloop
  endfacet
  facet normal -0.743143 0.669132 0
    outer loop
      vertex -1.04508 99.9389 42
      vertex -0.345653 100.716 50
      vertex -0.345653 100.716 42
    endloop
  endfacet
  facet normal -0.743143 0.669132 0
    outer loop
      vertex -0.345653 100.716 50
      vertex -1.04508 99.9389 42
      vertex -1.04508 99.9389 50
    endloop
  endfacet
  facet normal 0 0 -1
    outer loop
      vertex 114.068 2.46632 42
      vertex 116 3 42
      vertex 115.891 1.96044 42
    endloop
  endfacet
  facet normal 0 0 -1
    outer loop
      vertex 116 3 42
      vertex 114.5 4.5 42
      vertex 116 97 42
    endloop
  endfacet
  facet normal 0 0 -1
    outer loop
      vertex 114.068 2.46632 42
      vertex 115.891 1.96044 42
      vertex 115.568 0.966317 42
    endloop
  endfacet
  facet normal 0 0 -1
    outer loop
      vertex 114.5 95.5 42
      vertex 116 97 42
      vertex 114.5 4.5 42
    endloop
  endfacet
  facet normal 0 0 -1
    outer loop
      vertex 113.545 1.56107 42
      vertex 115.568 0.966317 42
      vertex 115.045 0.0610743 42
    endloop
  endfacet
  facet normal 0 0 -1
    outer loop
      vertex 114.391 96.5396 42
      vertex 116 97 42
      vertex 114.5 95.5 42
    endloop
  endfacet
  facet normal 0 0 -1
    outer loop
      vertex 114.068 97.5337 42
      vertex 116 97 42
      vertex 114.391 96.5396 42
    endloop
  endfacet
  facet normal 0 0 -1
    outer loop
      vertex 116 3 42
      vertex 114.391 3.46044 42
      vertex 114.5 4.5 42
    endloop
  endfacet
  facet normal 0 0 -1
    outer loop
      vertex 112.846 0.784276 42
      vertex 115.045 0.0610743 42
      vertex 114.346 -0.715724 42
    endloop
  endfacet
  facet normal -0 0 -1
    outer loop
      vertex 116 3 42
      vertex 114.068 2.46632 42
      vertex 114.391 3.46044 42
    endloop
  endfacet
  facet normal 0 0 -1
    outer loop
      vertex 115.568 0.966317 42
      vertex 113.545 1.56107 42
      vertex 114.068 2.46632 42
    endloop
  endfacet
  facet normal 0 0 -1
    outer loop
      vertex 112.846 0.784276 42
      vertex 114.346 -0.715724 42
      vertex 113.5 -1.33013 42
    endloop
  endfacet
  facet normal 0 0 -1
    outer loop
      vertex 115.045 0.0610743 42
      vertex 112.846 0.784276 42
      vertex 113.545 1.56107 42
    endloop
  endfacet
  facet normal 0 0 -1
    outer loop
      vertex 112 0.169873 42
      vertex 113.5 -1.33013 42
      vertex 112.545 -1.75528 42
    endloop
  endfacet
  facet normal 0 0 -1
    outer loop
      vertex 113.5 -1.33013 42
      vertex 112 0.169873 42
      vertex 112.846 0.784276 42
    endloop
  endfacet
  facet normal 0 0 -1
    outer loop
      vertex 111.045 -0.255282 42
      vertex 112.545 -1.75528 42
      vertex 111.523 -1.97261 42
    endloop
  endfacet
  facet normal 0 0 -1
    outer loop
      vertex 112.545 -1.75528 42
      vertex 111.045 -0.255282 42
      vertex 112 0.169873 42
    endloop
  endfacet
  facet normal 0 0 -1
    outer loop
      vertex 111.523 -1.97261 42
      vertex 110.023 -0.472609 42
      vertex 111.045 -0.255282 42
    endloop
  endfacet
  facet normal 0 0 -1
    outer loop
      vertex 111.523 -1.97261 42
      vertex 3.97736 -0.472609 42
      vertex 110.023 -0.472609 42
    endloop
  endfacet
  facet normal 0 0 -1
    outer loop
      vertex 2.47736 -1.97261 42
      vertex 3.97736 -0.472609 42
      vertex 111.523 -1.97261 42
    endloop
  endfacet
  facet normal 0 0 -1
    outer loop
      vertex 2.47736 -1.97261 42
      vertex 2.95492 -0.255282 42
      vertex 3.97736 -0.472609 42
    endloop
  endfacet
  facet normal 0 0 -1
    outer loop
      vertex 1.45492 -1.75528 42
      vertex 2.95492 -0.255282 42
      vertex 2.47736 -1.97261 42
    endloop
  endfacet
  facet normal -0 0 -1
    outer loop
      vertex 2.95492 -0.255282 42
      vertex 1.45492 -1.75528 42
      vertex 2 0.169873 42
    endloop
  endfacet
  facet normal 0 0 -1
    outer loop
      vertex 0.5 -1.33013 42
      vertex 2 0.169873 42
      vertex 1.45492 -1.75528 42
    endloop
  endfacet
  facet normal -0 0 -1
    outer loop
      vertex 2 0.169873 42
      vertex 0.5 -1.33013 42
      vertex 1.15435 0.784276 42
    endloop
  endfacet
  facet normal 0 0 -1
    outer loop
      vertex -0.345653 -0.715724 42
      vertex 1.15435 0.784276 42
      vertex 0.5 -1.33013 42
    endloop
  endfacet
  facet normal 0 0 -1
    outer loop
      vertex -1.04508 0.0610743 42
      vertex 1.15435 0.784276 42
      vertex -0.345653 -0.715724 42
    endloop
  endfacet
  facet normal -0 0 -1
    outer loop
      vertex 1.15435 0.784276 42
      vertex -1.04508 0.0610743 42
      vertex 0.454915 1.56107 42
    endloop
  endfacet
  facet normal 0 0 -1
    outer loop
      vertex -1.56773 0.966317 42
      vertex 0.454915 1.56107 42
      vertex -1.04508 0.0610743 42
    endloop
  endfacet
  facet normal -0 0 -1
    outer loop
      vertex 0.454915 1.56107 42
      vertex -1.56773 0.966317 42
      vertex -0.0677271 2.46632 42
    endloop
  endfacet
  facet normal 0 0 -1
    outer loop
      vertex -2 3 42
      vertex -0.0677271 2.46632 42
      vertex -1.89074 1.96044 42
    endloop
  endfacet
  facet normal 0 0 -1
    outer loop
      vertex -1.89074 1.96044 42
      vertex -0.0677271 2.46632 42
      vertex -1.56773 0.966317 42
    endloop
  endfacet
  facet normal 0 0 -1
    outer loop
      vertex 116 97 42
      vertex 114.068 97.5337 42
      vertex 115.891 98.0396 42
    endloop
  endfacet
  facet normal -0 0 -1
    outer loop
      vertex 115.891 98.0396 42
      vertex 114.068 97.5337 42
      vertex 115.568 99.0337 42
    endloop
  endfacet
  facet normal 0 0 -1
    outer loop
      vertex 113.545 98.4389 42
      vertex 115.568 99.0337 42
      vertex 114.068 97.5337 42
    endloop
  endfacet
  facet normal -0 0 -1
    outer loop
      vertex 115.568 99.0337 42
      vertex 113.545 98.4389 42
      vertex 115.045 99.9389 42
    endloop
  endfacet
  facet normal 0 0 -1
    outer loop
      vertex 112.846 99.2157 42
      vertex 115.045 99.9389 42
      vertex 113.545 98.4389 42
    endloop
  endfacet
  facet normal -0 0 -1
    outer loop
      vertex 115.045 99.9389 42
      vertex 112.846 99.2157 42
      vertex 114.346 100.716 42
    endloop
  endfacet
  facet normal -0 0 -1
    outer loop
      vertex 114.346 100.716 42
      vertex 112.846 99.2157 42
      vertex 113.5 101.33 42
    endloop
  endfacet
  facet normal 0 0 -1
    outer loop
      vertex 112 99.8301 42
      vertex 113.5 101.33 42
      vertex 112.846 99.2157 42
    endloop
  endfacet
  facet normal -0 0 -1
    outer loop
      vertex 113.5 101.33 42
      vertex 112 99.8301 42
      vertex 112.545 101.755 42
    endloop
  endfacet
  facet normal 0 0 -1
    outer loop
      vertex 111.045 100.255 42
      vertex 112.545 101.755 42
      vertex 112 99.8301 42
    endloop
  endfacet
  facet normal -0 0 -1
    outer loop
      vertex 112.545 101.755 42
      vertex 111.045 100.255 42
      vertex 111.523 101.973 42
    endloop
  endfacet
  facet normal 0 0 -1
    outer loop
      vertex 110.023 100.473 42
      vertex 111.523 101.973 42
      vertex 111.045 100.255 42
    endloop
  endfacet
  facet normal 0 0 -1
    outer loop
      vertex 3.97736 100.473 42
      vertex 111.523 101.973 42
      vertex 110.023 100.473 42
    endloop
  endfacet
  facet normal 0 0 -1
    outer loop
      vertex 3.97736 100.473 42
      vertex 2.47736 101.973 42
      vertex 111.523 101.973 42
    endloop
  endfacet
  facet normal 0 0 -1
    outer loop
      vertex 2.95492 100.255 42
      vertex 2.47736 101.973 42
      vertex 3.97736 100.473 42
    endloop
  endfacet
  facet normal 0 0 -1
    outer loop
      vertex 1.45492 101.755 42
      vertex 2.95492 100.255 42
      vertex 2 99.8301 42
    endloop
  endfacet
  facet normal 0 0 -1
    outer loop
      vertex 2.95492 100.255 42
      vertex 1.45492 101.755 42
      vertex 2.47736 101.973 42
    endloop
  endfacet
  facet normal 0 0 -1
    outer loop
      vertex 0.500001 101.33 42
      vertex 2 99.8301 42
      vertex 1.15435 99.2157 42
    endloop
  endfacet
  facet normal 0 0 -1
    outer loop
      vertex 2 99.8301 42
      vertex 0.500001 101.33 42
      vertex 1.45492 101.755 42
    endloop
  endfacet
  facet normal 0 0 -1
    outer loop
      vertex -1.04508 99.9389 42
      vertex 1.15435 99.2157 42
      vertex 0.454915 98.4389 42
    endloop
  endfacet
  facet normal 0 0 -1
    outer loop
      vertex -1.56773 99.0337 42
      vertex 0.454915 98.4389 42
      vertex -0.0677271 97.5337 42
    endloop
  endfacet
  facet normal 0 0 -1
    outer loop
      vertex 1.15435 99.2157 42
      vertex -0.345653 100.716 42
      vertex 0.500001 101.33 42
    endloop
  endfacet
  facet normal 0 0 -1
    outer loop
      vertex -2 97 42
      vertex -0.0677271 97.5337 42
      vertex -0.390738 96.5396 42
    endloop
  endfacet
  facet normal 0 0 -1
    outer loop
      vertex -2 97 42
      vertex -0.390738 96.5396 42
      vertex -0.5 95.5 42
    endloop
  endfacet
  facet normal 0 0 -1
    outer loop
      vertex 1.15435 99.2157 42
      vertex -1.04508 99.9389 42
      vertex -0.345653 100.716 42
    endloop
  endfacet
  facet normal -0 0 -1
    outer loop
      vertex -0.5 4.5 42
      vertex -2 3 42
      vertex -0.5 95.5 42
    endloop
  endfacet
  facet normal 0 0 -1
    outer loop
      vertex -0.0677271 2.46632 42
      vertex -2 3 42
      vertex -0.390738 3.46044 42
    endloop
  endfacet
  facet normal 0 0 -1
    outer loop
      vertex -2 97 42
      vertex -0.5 95.5 42
      vertex -2 3 42
    endloop
  endfacet
  facet normal -0 0 -1
    outer loop
      vertex -0.390738 3.46044 42
      vertex -2 3 42
      vertex -0.5 4.5 42
    endloop
  endfacet
  facet normal -0 0 -1
    outer loop
      vertex -0.0677271 97.5337 42
      vertex -2 97 42
      vertex -1.89074 98.0396 42
    endloop
  endfacet
  facet normal 0 0 -1
    outer loop
      vertex 0.454915 98.4389 42
      vertex -1.56773 99.0337 42
      vertex -1.04508 99.9389 42
    endloop
  endfacet
  facet normal 0 0 -1
    outer loop
      vertex -0.0677271 97.5337 42
      vertex -1.89074 98.0396 42
      vertex -1.56773 99.0337 42
    endloop
  endfacet
  facet normal 0 1 -0
    outer loop
      vertex 111.523 101.973 42
      vertex 2.47736 101.973 50
      vertex 111.523 101.973 50
    endloop
  endfacet
  facet normal 0 1 0
    outer loop
      vertex 2.47736 101.973 50
      vertex 111.523 101.973 42
      vertex 2.47736 101.973 42
    endloop
  endfacet
  facet normal -0.207915 0.978147 0
    outer loop
      vertex 2.47736 101.973 42
      vertex 1.45492 101.755 50
      vertex 2.47736 101.973 50
    endloop
  endfacet
  facet normal -0.207915 0.978147 0
    outer loop
      vertex 1.45492 101.755 50
      vertex 2.47736 101.973 42
      vertex 1.45492 101.755 42
    endloop
  endfacet
  facet normal 0.406736 0.913546 -0
    outer loop
      vertex 113.5 101.33 42
      vertex 112.545 101.755 50
      vertex 113.5 101.33 50
    endloop
  endfacet
  facet normal 0.406736 0.913546 0
    outer loop
      vertex 112.545 101.755 50
      vertex 113.5 101.33 42
      vertex 112.545 101.755 42
    endloop
  endfacet
  facet normal 0.866025 -0.500001 0
    outer loop
      vertex 115.045 0.0610743 50
      vertex 115.568 0.966317 42
      vertex 115.568 0.966317 50
    endloop
  endfacet
  facet normal 0.866025 -0.500001 0
    outer loop
      vertex 115.568 0.966317 42
      vertex 115.045 0.0610743 50
      vertex 115.045 0.0610743 42
    endloop
  endfacet
  facet normal -0.406737 -0.913545 0
    outer loop
      vertex 0.5 -1.33013 42
      vertex 1.45492 -1.75528 50
      vertex 0.5 -1.33013 50
    endloop
  endfacet
  facet normal -0.406737 -0.913545 -0
    outer loop
      vertex 1.45492 -1.75528 50
      vertex 0.5 -1.33013 42
      vertex 1.45492 -1.75528 42
    endloop
  endfacet
  facet normal -0.951057 -0.309017 0
    outer loop
      vertex -1.56773 0.966317 42
      vertex -1.89074 1.96044 50
      vertex -1.89074 1.96044 42
    endloop
  endfacet
  facet normal -0.951057 -0.309017 0
    outer loop
      vertex -1.89074 1.96044 50
      vertex -1.56773 0.966317 42
      vertex -1.56773 0.966317 50
    endloop
  endfacet
  facet normal -0.994522 -0.104529 0
    outer loop
      vertex -1.89074 1.96044 42
      vertex -2 3 50
      vertex -2 3 42
    endloop
  endfacet
  facet normal -0.994522 -0.104529 0
    outer loop
      vertex -2 3 50
      vertex -1.89074 1.96044 42
      vertex -1.89074 1.96044 50
    endloop
  endfacet
  facet normal 0.587787 0.809016 -0
    outer loop
      vertex 114.346 100.716 42
      vertex 113.5 101.33 50
      vertex 114.346 100.716 50
    endloop
  endfacet
  facet normal 0.587787 0.809016 0
    outer loop
      vertex 113.5 101.33 50
      vertex 114.346 100.716 42
      vertex 113.5 101.33 42
    endloop
  endfacet
  facet normal 0.207916 0.978147 -0
    outer loop
      vertex 112.545 101.755 42
      vertex 111.523 101.973 50
      vertex 112.545 101.755 50
    endloop
  endfacet
  facet normal 0.207916 0.978147 0
    outer loop
      vertex 111.523 101.973 50
      vertex 112.545 101.755 42
      vertex 111.523 101.973 42
    endloop
  endfacet
  facet normal -0.406737 0.913545 0
    outer loop
      vertex 1.45492 101.755 42
      vertex 0.500001 101.33 50
      vertex 1.45492 101.755 50
    endloop
  endfacet
  facet normal -0.406737 0.913545 0
    outer loop
      vertex 0.500001 101.33 50
      vertex 1.45492 101.755 42
      vertex 0.500001 101.33 42
    endloop
  endfacet
  facet normal 0.866025 0.500001 0
    outer loop
      vertex 115.568 99.0337 50
      vertex 115.045 99.9389 42
      vertex 115.045 99.9389 50
    endloop
  endfacet
  facet normal 0.866025 0.500001 0
    outer loop
      vertex 115.045 99.9389 42
      vertex 115.568 99.0337 50
      vertex 115.568 99.0337 42
    endloop
  endfacet
  facet normal 0.951056 0.309019 0
    outer loop
      vertex 115.891 98.0396 50
      vertex 115.568 99.0337 42
      vertex 115.568 99.0337 50
    endloop
  endfacet
  facet normal 0.951056 0.309019 0
    outer loop
      vertex 115.568 99.0337 42
      vertex 115.891 98.0396 50
      vertex 115.891 98.0396 42
    endloop
  endfacet
  facet normal 0.743143 0.669132 0
    outer loop
      vertex 115.045 99.9389 50
      vertex 114.346 100.716 42
      vertex 114.346 100.716 50
    endloop
  endfacet
  facet normal 0.743143 0.669132 0
    outer loop
      vertex 114.346 100.716 42
      vertex 115.045 99.9389 50
      vertex 115.045 99.9389 42
    endloop
  endfacet
  facet normal -1 0 0
    outer loop
      vertex 114.5 4.5 42
      vertex 114.5 95.5 48
      vertex 114.5 95.5 42
    endloop
  endfacet
  facet normal -1 -0 0
    outer loop
      vertex 114.5 95.5 48
      vertex 114.5 4.5 42
      vertex 114.5 4.5 48
    endloop
  endfacet
  facet normal 0 0 -1
    outer loop
      vertex 110.023 -0.472609 48
      vertex 114.5 4.5 48
      vertex 114.391 3.46044 48
    endloop
  endfacet
  facet normal -0 0 -1
    outer loop
      vertex 114.5 4.5 48
      vertex 110.023 -0.472609 48
      vertex 114.5 95.5 48
    endloop
  endfacet
  facet normal 0 0 -1
    outer loop
      vertex 110.023 -0.472609 48
      vertex 114.391 3.46044 48
      vertex 114.068 2.46632 48
    endloop
  endfacet
  facet normal 0 0 -1
    outer loop
      vertex 110.023 100.473 48
      vertex 114.5 95.5 48
      vertex 110.023 -0.472609 48
    endloop
  endfacet
  facet normal 0 0 -1
    outer loop
      vertex 110.023 -0.472609 48
      vertex 114.068 2.46632 48
      vertex 113.545 1.56107 48
    endloop
  endfacet
  facet normal 0 0 -1
    outer loop
      vertex 114.5 95.5 48
      vertex 110.023 100.473 48
      vertex 114.391 96.5396 48
    endloop
  endfacet
  facet normal 0 0 -1
    outer loop
      vertex 110.023 -0.472609 48
      vertex 113.545 1.56107 48
      vertex 112.846 0.784276 48
    endloop
  endfacet
  facet normal 0 0 -1
    outer loop
      vertex 114.391 96.5396 48
      vertex 110.023 100.473 48
      vertex 114.068 97.5337 48
    endloop
  endfacet
  facet normal 0 0 -1
    outer loop
      vertex 110.023 -0.472609 48
      vertex 112.846 0.784276 48
      vertex 112 0.169873 48
    endloop
  endfacet
  facet normal 0 0 -1
    outer loop
      vertex 114.068 97.5337 48
      vertex 110.023 100.473 48
      vertex 113.545 98.4389 48
    endloop
  endfacet
  facet normal 0 0 -1
    outer loop
      vertex 110.023 -0.472609 48
      vertex 112 0.169873 48
      vertex 111.045 -0.255282 48
    endloop
  endfacet
  facet normal 0 0 -1
    outer loop
      vertex 113.545 98.4389 48
      vertex 110.023 100.473 48
      vertex 112.846 99.2157 48
    endloop
  endfacet
  facet normal 0 0 -1
    outer loop
      vertex 112.846 99.2157 48
      vertex 110.023 100.473 48
      vertex 112 99.8301 48
    endloop
  endfacet
  facet normal 0 0 -1
    outer loop
      vertex 112 99.8301 48
      vertex 110.023 100.473 48
      vertex 111.045 100.255 48
    endloop
  endfacet
  facet normal 0 0 -1
    outer loop
      vertex 3.97736 -0.472609 48
      vertex 110.023 100.473 48
      vertex 110.023 -0.472609 48
    endloop
  endfacet
  facet normal 0 0 -1
    outer loop
      vertex 3.97736 -0.472609 48
      vertex 3.97736 100.473 48
      vertex 110.023 100.473 48
    endloop
  endfacet
  facet normal 0 0 -1
    outer loop
      vertex -0.5 4.5 48
      vertex 3.97736 -0.472609 48
      vertex 2.95492 -0.255282 48
    endloop
  endfacet
  facet normal 0 0 -1
    outer loop
      vertex 3.97736 -0.472609 48
      vertex -0.5 4.5 48
      vertex 3.97736 100.473 48
    endloop
  endfacet
  facet normal 0 0 -1
    outer loop
      vertex 3.97736 100.473 48
      vertex -0.5 95.5 48
      vertex 2.95492 100.255 48
    endloop
  endfacet
  facet normal 0 0 -1
    outer loop
      vertex -0.5 4.5 48
      vertex 2.95492 -0.255282 48
      vertex 2 0.169873 48
    endloop
  endfacet
  facet normal 0 0 -1
    outer loop
      vertex -0.5 4.5 48
      vertex 2 0.169873 48
      vertex 1.15435 0.784276 48
    endloop
  endfacet
  facet normal 0 0 -1
    outer loop
      vertex 3.97736 100.473 48
      vertex -0.5 4.5 48
      vertex -0.5 95.5 48
    endloop
  endfacet
  facet normal 0 0 -1
    outer loop
      vertex -0.5 4.5 48
      vertex 1.15435 0.784276 48
      vertex 0.454915 1.56107 48
    endloop
  endfacet
  facet normal 0 0 -1
    outer loop
      vertex 2.95492 100.255 48
      vertex -0.5 95.5 48
      vertex 2 99.8301 48
    endloop
  endfacet
  facet normal 0 0 -1
    outer loop
      vertex -0.5 4.5 48
      vertex 0.454915 1.56107 48
      vertex -0.0677271 2.46632 48
    endloop
  endfacet
  facet normal 0 0 -1
    outer loop
      vertex 2 99.8301 48
      vertex -0.5 95.5 48
      vertex 1.15435 99.2157 48
    endloop
  endfacet
  facet normal 0 0 -1
    outer loop
      vertex -0.5 4.5 48
      vertex -0.0677271 2.46632 48
      vertex -0.390738 3.46044 48
    endloop
  endfacet
  facet normal 0 0 -1
    outer loop
      vertex 1.15435 99.2157 48
      vertex -0.5 95.5 48
      vertex 0.454915 98.4389 48
    endloop
  endfacet
  facet normal 0 0 -1
    outer loop
      vertex 0.454915 98.4389 48
      vertex -0.5 95.5 48
      vertex -0.0677271 97.5337 48
    endloop
  endfacet
  facet normal 0 0 -1
    outer loop
      vertex -0.0677271 97.5337 48
      vertex -0.5 95.5 48
      vertex -0.390738 96.5396 48
    endloop
  endfacet
  facet normal 0 1 -0
    outer loop
      vertex 110.023 -0.472609 42
      vertex 3.97736 -0.472609 48
      vertex 110.023 -0.472609 48
    endloop
  endfacet
  facet normal 0 1 0
    outer loop
      vertex 3.97736 -0.472609 48
      vertex 110.023 -0.472609 42
      vertex 3.97736 -0.472609 42
    endloop
  endfacet
  facet normal -0.207912 0.978148 0
    outer loop
      vertex 111.045 -0.255282 42
      vertex 110.023 -0.472609 48
      vertex 111.045 -0.255282 48
    endloop
  endfacet
  facet normal -0.207912 0.978148 0
    outer loop
      vertex 110.023 -0.472609 48
      vertex 111.045 -0.255282 42
      vertex 110.023 -0.472609 42
    endloop
  endfacet
  facet normal -0.587787 0.809016 0
    outer loop
      vertex 112.846 0.784276 42
      vertex 112 0.169873 48
      vertex 112.846 0.784276 48
    endloop
  endfacet
  facet normal -0.587787 0.809016 0
    outer loop
      vertex 112 0.169873 48
      vertex 112.846 0.784276 42
      vertex 112 0.169873 42
    endloop
  endfacet
  facet normal 0.866025 -0.5 0
    outer loop
      vertex -0.0677271 97.5337 48
      vertex 0.454915 98.4389 42
      vertex 0.454915 98.4389 48
    endloop
  endfacet
  facet normal 0.866025 -0.5 0
    outer loop
      vertex 0.454915 98.4389 42
      vertex -0.0677271 97.5337 48
      vertex -0.0677271 97.5337 42
    endloop
  endfacet
  facet normal 1 -0 0
    outer loop
      vertex -0.5 4.5 48
      vertex -0.5 95.5 42
      vertex -0.5 95.5 48
    endloop
  endfacet
  facet normal 1 0 0
    outer loop
      vertex -0.5 95.5 42
      vertex -0.5 4.5 48
      vertex -0.5 4.5 42
    endloop
  endfacet
  facet normal -0.207916 -0.978147 0
    outer loop
      vertex 110.023 100.473 42
      vertex 111.045 100.255 48
      vertex 110.023 100.473 48
    endloop
  endfacet
  facet normal -0.207916 -0.978147 -0
    outer loop
      vertex 111.045 100.255 48
      vertex 110.023 100.473 42
      vertex 111.045 100.255 42
    endloop
  endfacet
  facet normal 0 -1 0
    outer loop
      vertex 3.97736 100.473 42
      vertex 110.023 100.473 48
      vertex 3.97736 100.473 48
    endloop
  endfacet
  facet normal 0 -1 -0
    outer loop
      vertex 110.023 100.473 48
      vertex 3.97736 100.473 42
      vertex 110.023 100.473 42
    endloop
  endfacet
  facet normal 0.207915 -0.978147 0
    outer loop
      vertex 2.95492 100.255 42
      vertex 3.97736 100.473 48
      vertex 2.95492 100.255 48
    endloop
  endfacet
  facet normal 0.207915 -0.978147 0
    outer loop
      vertex 3.97736 100.473 48
      vertex 2.95492 100.255 42
      vertex 3.97736 100.473 42
    endloop
  endfacet
  facet normal -0.951056 0.309019 0
    outer loop
      vertex 114.068 2.46632 42
      vertex 114.391 3.46044 48
      vertex 114.391 3.46044 42
    endloop
  endfacet
  facet normal -0.951056 0.309019 0
    outer loop
      vertex 114.391 3.46044 48
      vertex 114.068 2.46632 42
      vertex 114.068 2.46632 48
    endloop
  endfacet
  facet normal -0.743145 0.669131 0
    outer loop
      vertex 112.846 0.784276 42
      vertex 113.545 1.56107 48
      vertex 113.545 1.56107 42
    endloop
  endfacet
  facet normal -0.743145 0.669131 0
    outer loop
      vertex 113.545 1.56107 48
      vertex 112.846 0.784276 42
      vertex 112.846 0.784276 48
    endloop
  endfacet
  facet normal -0.406736 0.913546 0
    outer loop
      vertex 112 0.169873 42
      vertex 111.045 -0.255282 48
      vertex 112 0.169873 48
    endloop
  endfacet
  facet normal -0.406736 0.913546 0
    outer loop
      vertex 111.045 -0.255282 48
      vertex 112 0.169873 42
      vertex 111.045 -0.255282 42
    endloop
  endfacet
  facet normal 0.743143 -0.669132 0
    outer loop
      vertex 0.454915 98.4389 48
      vertex 1.15435 99.2157 42
      vertex 1.15435 99.2157 48
    endloop
  endfacet
  facet normal 0.743143 -0.669132 0
    outer loop
      vertex 1.15435 99.2157 42
      vertex 0.454915 98.4389 48
      vertex 0.454915 98.4389 42
    endloop
  endfacet
  facet normal 0.994522 -0.104529 0
    outer loop
      vertex -0.5 95.5 48
      vertex -0.390738 96.5396 42
      vertex -0.390738 96.5396 48
    endloop
  endfacet
  facet normal 0.994522 -0.104529 0
    outer loop
      vertex -0.390738 96.5396 42
      vertex -0.5 95.5 48
      vertex -0.5 95.5 42
    endloop
  endfacet
  facet normal 0.406737 -0.913545 0
    outer loop
      vertex 2 99.8301 42
      vertex 2.95492 100.255 48
      vertex 2 99.8301 48
    endloop
  endfacet
  facet normal 0.406737 -0.913545 0
    outer loop
      vertex 2.95492 100.255 48
      vertex 2 99.8301 42
      vertex 2.95492 100.255 42
    endloop
  endfacet
  facet normal -0.994522 0.104527 0
    outer loop
      vertex 114.391 3.46044 42
      vertex 114.5 4.5 48
      vertex 114.5 4.5 42
    endloop
  endfacet
  facet normal -0.994522 0.104527 0
    outer loop
      vertex 114.5 4.5 48
      vertex 114.391 3.46044 42
      vertex 114.391 3.46044 48
    endloop
  endfacet
  facet normal -0.866025 0.500001 0
    outer loop
      vertex 113.545 1.56107 42
      vertex 114.068 2.46632 48
      vertex 114.068 2.46632 42
    endloop
  endfacet
  facet normal -0.866025 0.500001 0
    outer loop
      vertex 114.068 2.46632 48
      vertex 113.545 1.56107 42
      vertex 113.545 1.56107 48
    endloop
  endfacet
  facet normal 0.994522 0.104529 0
    outer loop
      vertex -0.390738 3.46044 48
      vertex -0.5 4.5 42
      vertex -0.5 4.5 48
    endloop
  endfacet
  facet normal 0.994522 0.104529 0
    outer loop
      vertex -0.5 4.5 42
      vertex -0.390738 3.46044 48
      vertex -0.390738 3.46044 42
    endloop
  endfacet
  facet normal 0.743145 0.669131 0
    outer loop
      vertex 1.15435 0.784276 48
      vertex 0.454915 1.56107 42
      vertex 0.454915 1.56107 48
    endloop
  endfacet
  facet normal 0.743145 0.669131 0
    outer loop
      vertex 0.454915 1.56107 42
      vertex 1.15435 0.784276 48
      vertex 1.15435 0.784276 42
    endloop
  endfacet
  facet normal 0.866025 0.5 0
    outer loop
      vertex 0.454915 1.56107 48
      vertex -0.0677271 2.46632 42
      vertex -0.0677271 2.46632 48
    endloop
  endfacet
  facet normal 0.866025 0.5 0
    outer loop
      vertex -0.0677271 2.46632 42
      vertex 0.454915 1.56107 48
      vertex 0.454915 1.56107 42
    endloop
  endfacet
  facet normal 0.207911 0.978148 -0
    outer loop
      vertex 3.97736 -0.472609 42
      vertex 2.95492 -0.255282 48
      vertex 3.97736 -0.472609 48
    endloop
  endfacet
  facet normal 0.207911 0.978148 0
    outer loop
      vertex 2.95492 -0.255282 48
      vertex 3.97736 -0.472609 42
      vertex 2.95492 -0.255282 42
    endloop
  endfacet
  facet normal 0.951057 -0.309017 0
    outer loop
      vertex -0.390738 96.5396 48
      vertex -0.0677271 97.5337 42
      vertex -0.0677271 97.5337 48
    endloop
  endfacet
  facet normal 0.951057 -0.309017 0
    outer loop
      vertex -0.0677271 97.5337 42
      vertex -0.390738 96.5396 48
      vertex -0.390738 96.5396 42
    endloop
  endfacet
  facet normal -0.406736 -0.913546 0
    outer loop
      vertex 111.045 100.255 42
      vertex 112 99.8301 48
      vertex 111.045 100.255 48
    endloop
  endfacet
  facet normal -0.406736 -0.913546 -0
    outer loop
      vertex 112 99.8301 48
      vertex 111.045 100.255 42
      vertex 112 99.8301 42
    endloop
  endfacet
  facet normal 0.587785 -0.809017 0
    outer loop
      vertex 1.15435 99.2157 42
      vertex 2 99.8301 48
      vertex 1.15435 99.2157 48
    endloop
  endfacet
  facet normal 0.587785 -0.809017 0
    outer loop
      vertex 2 99.8301 48
      vertex 1.15435 99.2157 42
      vertex 2 99.8301 42
    endloop
  endfacet
  facet normal -0.951056 -0.309019 0
    outer loop
      vertex 114.391 96.5396 42
      vertex 114.068 97.5337 48
      vertex 114.068 97.5337 42
    endloop
  endfacet
  facet normal -0.951056 -0.309019 0
    outer loop
      vertex 114.068 97.5337 48
      vertex 114.391 96.5396 42
      vertex 114.391 96.5396 48
    endloop
  endfacet
  facet normal -0.743143 -0.669132 0
    outer loop
      vertex 113.545 98.4389 42
      vertex 112.846 99.2157 48
      vertex 112.846 99.2157 42
    endloop
  endfacet
  facet normal -0.743143 -0.669132 0
    outer loop
      vertex 112.846 99.2157 48
      vertex 113.545 98.4389 42
      vertex 113.545 98.4389 48
    endloop
  endfacet
  facet normal -0.866025 -0.500001 0
    outer loop
      vertex 114.068 97.5337 42
      vertex 113.545 98.4389 48
      vertex 113.545 98.4389 42
    endloop
  endfacet
  facet normal -0.866025 -0.500001 0
    outer loop
      vertex 113.545 98.4389 48
      vertex 114.068 97.5337 42
      vertex 114.068 97.5337 48
    endloop
  endfacet
  facet normal 0.951057 0.309017 0
    outer loop
      vertex -0.0677271 2.46632 48
      vertex -0.390738 3.46044 42
      vertex -0.390738 3.46044 48
    endloop
  endfacet
  facet normal 0.951057 0.309017 0
    outer loop
      vertex -0.390738 3.46044 42
      vertex -0.0677271 2.46632 48
      vertex -0.0677271 2.46632 42
    endloop
  endfacet
  facet normal 0.406737 0.913545 -0
    outer loop
      vertex 2.95492 -0.255282 42
      vertex 2 0.169873 48
      vertex 2.95492 -0.255282 48
    endloop
  endfacet
  facet normal 0.406737 0.913545 0
    outer loop
      vertex 2 0.169873 48
      vertex 2.95492 -0.255282 42
      vertex 2 0.169873 42
    endloop
  endfacet
  facet normal 0.587785 0.809017 -0
    outer loop
      vertex 2 0.169873 42
      vertex 1.15435 0.784276 48
      vertex 2 0.169873 48
    endloop
  endfacet
  facet normal 0.587785 0.809017 0
    outer loop
      vertex 1.15435 0.784276 48
      vertex 2 0.169873 42
      vertex 1.15435 0.784276 42
    endloop
  endfacet
  facet normal -0.587787 -0.809016 0
    outer loop
      vertex 112 99.8301 42
      vertex 112.846 99.2157 48
      vertex 112 99.8301 48
    endloop
  endfacet
  facet normal -0.587787 -0.809016 -0
    outer loop
      vertex 112.846 99.2157 48
      vertex 112 99.8301 42
      vertex 112.846 99.2157 42
    endloop
  endfacet
  facet normal -0.994522 -0.104527 0
    outer loop
      vertex 114.5 95.5 42
      vertex 114.391 96.5396 48
      vertex 114.391 96.5396 42
    endloop
  endfacet
  facet normal -0.994522 -0.104527 0
    outer loop
      vertex 114.391 96.5396 48
      vertex 114.5 95.5 42
      vertex 114.5 95.5 48
    endloop
  endfacet
endsolid OpenSCAD_Model
